<svg width="127" height="52" viewBox="0 0 127 52" fill="none" xmlns="http://www.w3.org/2000/svg">
<path d="M27.1807 0.72168V8.85645H26.2236C21.7575 8.9248 18.1572 10.0869 15.4229 12.3428C12.7113 14.5986 11.082 17.7318 10.5352 21.7422C13.1784 19.0534 16.5166 17.709 20.5498 17.709C24.8792 17.709 28.32 19.2585 30.8721 22.3574C33.4242 25.4564 34.7002 29.5352 34.7002 34.5938C34.7002 37.8294 33.9938 40.7575 32.5811 43.3779C31.1911 45.9984 29.2087 48.0378 26.6338 49.4961C24.0817 50.9544 21.1878 51.6836 17.9521 51.6836C12.7113 51.6836 8.47298 49.8607 5.2373 46.2148C2.02441 42.569 0.417969 37.7041 0.417969 31.6201V28.0654C0.417969 22.665 1.43197 17.9027 3.45996 13.7783C5.51074 9.63118 8.4388 6.42969 12.2441 4.17383C16.0723 1.89518 20.5042 0.744466 25.54 0.72168H27.1807ZM17.542 25.6387C15.9469 25.6387 14.5 26.0602 13.2012 26.9033C11.9023 27.7236 10.9453 28.8174 10.3301 30.1846V33.1924C10.3301 36.4964 10.9795 39.0827 12.2783 40.9512C13.5771 42.7969 15.4001 43.7197 17.7471 43.7197C19.8662 43.7197 21.5752 42.888 22.874 41.2246C24.1956 39.5384 24.8564 37.3623 24.8564 34.6963C24.8564 31.9847 24.1956 29.7972 22.874 28.1338C21.5524 26.4704 19.7751 25.6387 17.542 25.6387ZM74.0752 30.4238C74.0752 37.3053 72.651 42.569 69.8027 46.2148C66.9544 49.8607 62.7845 51.6836 57.293 51.6836C51.8698 51.6836 47.7227 49.8949 44.8516 46.3174C41.9805 42.7399 40.5107 37.613 40.4424 30.9365V21.7764C40.4424 14.8265 41.8779 9.55143 44.749 5.95117C47.6429 2.35091 51.8014 0.550781 57.2246 0.550781C62.6478 0.550781 66.7949 2.33952 69.666 5.91699C72.5371 9.47168 74.0068 14.5872 74.0752 21.2637V30.4238ZM64.1973 20.375C64.1973 16.2507 63.6276 13.2542 62.4883 11.3857C61.3717 9.49447 59.6172 8.54883 57.2246 8.54883C54.9004 8.54883 53.18 9.44889 52.0635 11.249C50.9697 13.0264 50.3887 15.8177 50.3203 19.623V31.7227C50.3203 35.7786 50.8672 38.7979 51.9609 40.7803C53.0775 42.7399 54.8548 43.7197 57.293 43.7197C59.7083 43.7197 61.4515 42.7741 62.5225 40.8828C63.5934 38.9915 64.1517 36.0977 64.1973 32.2012V20.375ZM80.6377 10.8047C80.6377 7.7513 81.6289 5.27897 83.6113 3.3877C85.5938 1.47363 88.1914 0.516602 91.4043 0.516602C94.6628 0.516602 97.2832 1.46224 99.2656 3.35352C101.248 5.22201 102.239 7.7627 102.239 10.9756V13.4365C102.239 16.5127 101.248 18.985 99.2656 20.8535C97.2832 22.722 94.6855 23.6562 91.4727 23.6562C88.237 23.6562 85.6165 22.722 83.6113 20.8535C81.6289 18.9622 80.6377 16.4215 80.6377 13.2314V10.8047ZM87.2002 13.4365C87.2002 14.8037 87.5876 15.9089 88.3623 16.752C89.1598 17.5723 90.1966 17.9824 91.4727 17.9824C92.7487 17.9824 93.7627 17.5609 94.5146 16.7178C95.2666 15.8747 95.6426 14.7467 95.6426 13.334V10.8047C95.6426 9.4375 95.2666 8.33236 94.5146 7.48926C93.7627 6.64616 92.7259 6.22461 91.4043 6.22461C90.151 6.22461 89.137 6.64616 88.3623 7.48926C87.5876 8.30957 87.2002 9.46029 87.2002 10.9414V13.4365ZM104.427 38.7979C104.427 35.7217 105.429 33.2493 107.435 31.3809C109.44 29.4896 112.037 28.5439 115.228 28.5439C118.463 28.5439 121.072 29.4782 123.055 31.3467C125.06 33.1924 126.062 35.7445 126.062 39.0029V41.4639C126.062 44.5173 125.083 46.9896 123.123 48.8809C121.163 50.7493 118.554 51.6836 115.296 51.6836C112.015 51.6836 109.383 50.738 107.4 48.8467C105.418 46.9554 104.427 44.4489 104.427 41.3271V38.7979ZM110.989 41.4639C110.989 42.7171 111.399 43.7881 112.22 44.6768C113.04 45.5654 114.065 46.0098 115.296 46.0098C118.076 46.0098 119.466 44.4717 119.466 41.3955V38.7979C119.466 37.4307 119.078 36.3369 118.304 35.5166C117.529 34.6735 116.504 34.252 115.228 34.252C113.951 34.252 112.926 34.6735 112.151 35.5166C111.377 36.3369 110.989 37.4648 110.989 38.9004V41.4639ZM93.4209 47.2744L88.6016 44.6768L112.903 5.78027L117.723 8.37793L93.4209 47.2744Z" fill="#214E41"/>
</svg>
